<svg id="dribble" xmlns="http://www.w3.org/2000/svg" viewBox="0 0 49.652 49.652"><g><path d="M24.09 20.454c-2.306-4.097-4.77-7.435-4.946-7.674-3.714 1.755-6.485 5.176-7.35 9.3.35.007 5.9.073 12.295-1.626zM21.636 11.894c-.014.006-.028.01-.042.012.025-.005.04-.01.04-.01l.002-.002zM33.622 14.83c-2.347-2.065-5.423-3.32-8.796-3.32-1.082 0-2.132.13-3.14.374.2.264 2.702 3.587 4.98 7.77 5.026-1.885 6.924-4.77 6.956-4.823zM27.094 27.006c-7.864 2.74-10.427 8.267-10.45 8.315 2.258 1.765 5.095 2.826 8.182 2.826 1.846 0 3.602-.378 5.2-1.058-.197-1.164-.973-5.242-2.846-10.11-.03.008-.058.017-.086.028zM25.748 24.93c.174-.057.35-.11.523-.16-.33-.758-.696-1.516-1.08-2.264-6.855 2.053-13.437 1.902-13.67 1.898-.006.14-.012.278-.012.42 0 3.422 1.29 6.54 3.41 8.9l-.004-.007c0 .004 3.646-6.464 10.834-8.787z"/><path d="M24.826 0C11.136 0 0 11.137 0 24.826c0 13.688 11.137 24.826 24.826 24.826 13.688 0 24.826-11.138 24.826-24.826C49.652 11.136 38.516 0 24.826 0zm15.278 27.97c-.204 1-.512 1.986-.908 2.93-.393.924-.875 1.815-1.438 2.65-.558.823-1.2 1.6-1.9 2.307-.706.704-1.48 1.344-2.31 1.9-.833.564-1.726 1.048-2.648 1.44-.94.396-1.93.703-2.93.91-1.027.21-2.085.314-3.142.314-1.058 0-2.113-.103-3.14-.314-1.003-.206-1.99-.513-2.932-.91-.925-.392-1.816-.874-2.65-1.438-.825-.56-1.602-1.197-2.306-1.9-.706-.707-1.346-1.48-1.903-2.31-.563-.833-1.047-1.727-1.438-2.648-.398-.94-.706-1.93-.91-2.93-.21-1.026-.317-2.085-.317-3.145 0-1.057.106-2.113.316-3.14.204-1 .51-1.987.91-2.93.39-.926.874-1.816 1.436-2.648.56-.825 1.198-1.603 1.903-2.307.704-.706 1.48-1.346 2.306-1.904.834-.563 1.726-1.046 2.65-1.438.94-.396 1.93-.705 2.93-.908 1.028-.21 2.084-.318 3.14-.318 1.06 0 2.115.107 3.143.318 1 .203 1.986.51 2.93.908.926.392 1.815.873 2.65 1.438.823.56 1.602 1.2 2.307 1.904.704.705 1.345 1.48 1.9 2.307.564.833 1.048 1.724 1.44 2.647.395.943.704 1.93.908 2.932.21 1.025.315 2.082.315 3.14 0 1.06-.106 2.114-.316 3.143z"/><path d="M29.676 26.36c1.748 4.8 2.457 8.71 2.592 9.514 2.992-2.02 5.115-5.222 5.71-8.933-.277-.09-4.003-1.266-8.302-.58zM27.69 21.637c.31.635.607 1.28.886 1.932.1.23.192.46.287.687 4.576-.574 9.084.396 9.274.437-.028-3.16-1.16-6.06-3.026-8.326-.022.035-2.16 3.123-7.42 5.27z"/></g></svg>
