<svg id="antenna" xmlns="http://www.w3.org/2000/svg" viewBox="0 0 513.32 513.32"><g><path d="M256.66 0v42.777c128.33 0 213.883 85.553 213.883 213.883h42.777C513.32 106.942 406.378 0 256.66 0zM288.742 254.52l25.666-25.665c8.555-8.555 8.555-21.388 0-29.944-8.555-8.554-21.388-8.554-29.944 0l-25.666 25.667c-55.61-51.332-124.052-89.83-201.05-106.942l-14.972-2.14-8.555 12.834C12.834 166.83 0 211.743 0 256.66c0 141.163 115.497 256.66 256.66 256.66 44.916 0 89.83-12.833 128.33-34.22l12.833-8.556-4.278-14.972c-14.97-76.998-53.47-145.44-104.803-201.05zM256.66 470.544c-117.636 0-213.883-96.247-213.883-213.883 0-32.083 6.416-64.165 21.388-91.97C203.19 201.05 312.27 310.13 348.63 449.155c-27.805 14.972-59.888 21.388-91.97 21.388z"/><path d="M256.66 85.553v42.777c64.165 0 128.33 64.165 128.33 128.33h42.777c0-85.553-85.554-171.107-171.107-171.107z"/></g></svg>
