<svg id="bookmark" xmlns="http://www.w3.org/2000/svg" viewBox="0 0 431.972 431.972"><path d="M393.146 14.28c-3.713-5.334-8.713-9.234-14.99-11.708C374.16.862 369.972.004 365.593.004V0H66.378C62 0 57.816.857 53.818 2.568c-6.28 2.472-11.278 6.377-14.99 11.707-3.71 5.33-5.567 11.228-5.567 17.7v368.02c0 6.475 1.86 12.37 5.57 17.706 3.71 5.33 8.708 9.234 14.988 11.705 3.994 1.71 8.183 2.566 12.56 2.566 8.95 0 16.844-3.14 23.698-9.417l125.91-121.062 125.91 121.066c6.663 6.08 14.562 9.127 23.695 9.127 4.76 0 8.95-.756 12.566-2.28 6.276-2.47 11.276-6.374 14.99-11.71 3.71-5.328 5.563-11.225 5.563-17.7V31.98c0-6.473-1.858-12.37-5.564-17.7zm-30.98 376.86l-120.77-115.916-25.41-24.264-25.41 24.264L69.81 391.14V36.55h292.356v354.59z" fill="#FFF"/></svg>
