<svg id="apple" xmlns="http://www.w3.org/2000/svg" viewBox="0 0 475.088 475.088"><g><path d="M391.29 310.91c-13.135-18.842-19.698-40.07-19.698-63.666 0-21.508 6.194-41.213 18.556-59.102 6.662-9.707 17.514-20.934 32.55-33.69-9.895-12.177-19.792-21.694-29.696-28.548-17.89-12.37-38.164-18.555-60.812-18.555-13.51 0-29.98 3.233-49.39 9.71-18.653 6.47-32.264 9.71-40.825 9.71-6.475 0-19.606-2.854-39.4-8.567-19.986-5.71-36.832-8.564-50.536-8.564-32.74 0-59.767 13.705-81.084 41.11-21.508 27.79-32.264 63.383-32.264 106.78 0 46.063 13.993 93.93 41.97 143.608 28.36 49.297 57.006 73.95 85.937 73.95 9.706 0 22.27-3.238 37.684-9.71 15.42-6.275 28.933-9.42 40.545-9.42 12.367 0 26.74 3.045 43.108 9.133 17.32 6.086 30.646 9.132 39.97 9.132 24.363 0 48.825-18.654 73.375-55.96 15.985-23.79 27.692-47.58 35.115-71.375-16.94-5.143-31.974-17.134-45.108-35.977z"/><path d="M294.213 90.22c11.994-11.992 20.844-25.127 26.556-39.4 5.516-14.275 8.27-27.22 8.27-38.832 0-.76-.04-1.712-.144-2.855-.086-1.142-.137-2.09-.137-2.853-.193-.572-.43-1.62-.713-3.14-.284-1.52-.52-2.568-.716-3.14-33.498 7.808-57.29 21.892-71.375 42.26-14.27 20.556-21.698 45.012-22.27 73.372 12.753-1.143 22.646-2.758 29.692-4.853 10.286-3.428 20.552-10.283 30.836-20.56z"/></g></svg>
