<?xml version="1.0" encoding="iso-8859-1"?>
<!-- Generator: Adobe Illustrator 19.1.0, SVG Export Plug-In . SVG Version: 6.00 Build 0)  -->
<svg xmlns="http://www.w3.org/2000/svg" xmlns:xlink="http://www.w3.org/1999/xlink" version="1.1" id="Capa_1" x="0px" y="0px" viewBox="0 0 513.32 513.32" style="enable-background:new 0 0 513.32 513.32;" xml:space="preserve" width="512px" height="512px">
<g>
	<g>
		<g>
			<path d="M256.66,0v42.777c128.33,0,213.883,85.553,213.883,213.883h42.777C513.32,106.942,406.378,0,256.66,0z" fill="#FFFFFF"/>
			<path d="M288.742,254.521l25.666-25.666c8.555-8.555,8.555-21.388,0-29.944c-8.555-8.555-21.388-8.555-29.944,0l-25.666,25.666     c-55.61-51.332-124.052-89.831-201.05-106.942l-14.972-2.139l-8.555,12.833C12.833,166.829,0,211.744,0,256.66     c0,141.163,115.497,256.66,256.66,256.66c44.916,0,89.831-12.833,128.33-34.221l12.833-8.555l-4.278-14.972     C378.574,378.574,340.074,310.131,288.742,254.521L288.742,254.521z M256.66,470.543c-117.636,0-213.883-96.247-213.883-213.883     c0-32.083,6.416-64.165,21.388-91.97C203.189,201.05,312.27,310.13,348.63,449.155     C320.825,464.127,288.742,470.543,256.66,470.543z" fill="#FFFFFF"/>
			<path d="M256.66,85.553v42.777c64.165,0,128.33,64.165,128.33,128.33h42.777C427.767,171.107,342.213,85.553,256.66,85.553z" fill="#FFFFFF"/>
		</g>
	</g>
</g>
<g>
</g>
<g>
</g>
<g>
</g>
<g>
</g>
<g>
</g>
<g>
</g>
<g>
</g>
<g>
</g>
<g>
</g>
<g>
</g>
<g>
</g>
<g>
</g>
<g>
</g>
<g>
</g>
<g>
</g>
</svg>
