<svg xmlns="http://www.w3.org/2000/svg" viewBox="0 0 33.062 33.062"><path d="M25.615 26.608H6.442A6.449 6.449 0 0 1 0 20.168a6.449 6.449 0 0 1 6.294-6.44 10.044 10.044 0 0 1 9.67-7.275c3.738 0 7.104 2.026 8.87 5.31.28-.03.533-.045.78-.045 4.106 0 7.446 3.34 7.446 7.443.002 4.108-3.34 7.448-7.445 7.448zM6.442 14.726c-3 0-5.442 2.44-5.442 5.44 0 3 2.44 5.44 5.442 5.44h19.173a6.452 6.452 0 0 0 6.446-6.445 6.45 6.45 0 0 0-6.445-6.442c-.298 0-.613.026-.99.083a.5.5 0 0 1-.523-.272c-1.544-3.13-4.663-5.074-8.138-5.074a9.05 9.05 0 0 0-8.804 6.904.52.52 0 0 1-.498.38l-.22-.012z"/><path d="M25.615 26.608a.5.5 0 0 1 0-1 6.453 6.453 0 0 0 6.446-6.446 6.448 6.448 0 1 0-11.303-4.236.499.499 0 1 1-.753-.657 7.448 7.448 0 0 1 5.61-2.55c4.107 0 7.447 3.34 7.447 7.443.002 4.105-3.34 7.445-7.445 7.445z"/></svg>