<svg xmlns="http://www.w3.org/2000/svg" viewBox="0 0 533.333 533.334"><path d="M433.333 66.667H100c-55 0-100 45-100 100v200c0 55 45 100 100 100h333.333c55 0 100-45 100-100v-200c0-55-45-100-100-100zm66.667 300c0 17.696-6.966 34.407-19.61 47.055-12.648 12.646-29.357 19.61-47.056 19.61H100c-17.697 0-34.407-6.965-47.054-19.61-12.647-12.647-19.613-29.358-19.613-47.055v-200c0-17.697 6.966-34.407 19.613-47.054C65.593 106.966 82.303 100 100 100h333.333c17.697 0 34.407 6.966 47.055 19.613C493.036 132.26 500 148.97 500 166.667v200zM200 400l166.667-133.333L200 133.333V400z"/></svg>