<svg id="bag" xmlns="http://www.w3.org/2000/svg" viewBox="0 0 612.074 612.074"><path d="M612.074 132.14v-2.38c0-8.848-4.016-19.26-11.23-26.472l-.817-.818s-.818 0-.818-.818c-1.637-1.636-3.2-2.38-4.834-4.016-.818 0-.818-.818-1.636-.818-1.636-.818-4.016-1.636-5.652-2.38-.818 0-.818-.818-1.636-.818-2.38-.818-4.833-1.636-7.213-1.636h-1.637c-2.38 0-5.65-.818-8.85-.818H43.428c-3.198 0-6.395 0-9.667.818-.818 0-1.636 0-2.38.818-2.38.818-4.834.818-6.395 1.636-.818 0-.818.818-1.636.818-1.637.818-4.017 1.636-5.653 2.38l-.818.818c-1.637.818-3.2 2.38-4.835 3.198l-2.38 2.38C4.015 110.428.818 117.715 0 125.746V486.402c1.636 11.23 7.213 20.896 15.244 26.473 7.213 4.833 16.062 8.03 26.473 8.03h528.491c2.38 0 5.65 0 8.03-.817h1.637c2.38-.818 4.834-.818 6.395-1.636h.818c17.698-6.395 24.91-21.714 24.91-36.14V134.52v-1.635c.076.074.076.074.076-.744zm-51.384-11.227l-252.98 246.51-57.854-56.218L51.46 120.838h509.23v.075zM29.82 475.1V140.99l187.094 179.883L29.82 475.1zm269.86 16.805H56.29l182.336-149.393 58.597 57.036c2.38 2.38 4.834 3.198 7.213 4.016H309.346c2.38-.818 5.65-1.636 7.213-4.016l55.4-53.838 183.078 146.196h-255.36zm282.65-16.062L394.416 324.07 582.33 140.99v334.853z"/></svg>
