<svg id="bag" xmlns="http://www.w3.org/2000/svg" viewBox="0 0 612 612"><path d="M600.388 112.12c-7.707-7.882-17.246-11.944-28.525-11.944H420.275V50.088c0-10.282-7.96-18.576-18.243-18.576H209.967c-10.282 0-18.576 8.294-18.576 18.576v50.087H40.14c-11.28 0-20.82 4.062-28.533 11.945C4.062 119.827 0 129.366 0 140.313V540.35c0 10.948 3.892 20.65 11.605 28.526 7.55 7.713 17.252 11.612 28.533 11.612h531.724c11.28 0 20.98-3.9 28.525-11.612C608.1 560.992 612 551.298 612 540.35V140.313c0-10.947-4.062-20.486-11.612-28.192zM228.21 68.33h155.57v31.845H228.21V68.33zm-97.853 475.34h-90.22c-1.662 0-3.65-1.99-3.65-3.32V140.313c0-2.32 1.323-3.32 3.65-3.32h90.22V543.67zm314.46 0H167.84V136.994h276.976V543.67zm130.364-3.32c0 2.32-.997 3.32-3.317 3.32h-90.227V136.994h90.227c2.32 0 3.318.998 3.318 3.32V540.35z"/></svg>