<svg xmlns="http://www.w3.org/2000/svg" viewBox="0 0 33.062 33.062"><path d="M25.615 26.608H6.442C2.89 26.608 0 23.718 0 20.168c0-3.503 2.81-6.362 6.294-6.44 1.24-4.304 5.16-7.275 9.67-7.275 3.738 0 7.104 2.026 8.87 5.31.28-.03.533-.045.78-.045 4.106 0 7.446 3.34 7.446 7.443.002 4.108-3.34 7.448-7.445 7.448zM6.442 14.726c-3 0-5.442 2.44-5.442 5.44 0 3 2.44 5.44 5.442 5.44h19.173c3.555 0 6.446-2.89 6.446-6.445 0-3.552-2.89-6.442-6.445-6.442-.298 0-.613.026-.99.083-.215.033-.427-.078-.523-.272-1.544-3.13-4.663-5.074-8.138-5.074-4.184 0-7.804 2.84-8.804 6.904-.056.228-.275.377-.498.38l-.22-.012z"/><path d="M25.615 26.608c-.276 0-.5-.224-.5-.5s.224-.5.5-.5c3.555 0 6.446-2.892 6.446-6.446 0-3.553-2.89-6.443-6.445-6.443-1.862 0-3.633.804-4.858 2.207-.18.208-.497.23-.705.048-.208-.18-.23-.497-.048-.705 1.414-1.62 3.46-2.55 5.61-2.55 4.107 0 7.447 3.34 7.447 7.443.002 4.105-3.34 7.445-7.445 7.445z"/></svg>