<svg id = "timer" xmlns="http://www.w3.org/2000/svg" viewBox="0 0 161.782 161.782"><g ><path d="M80.89 161.782c-40.652 0-73.732-33.08-73.732-73.733s33.08-73.727 73.733-73.727 73.734 33.072 73.734 73.726-33.08 73.732-73.733 73.732zm0-139.855c-36.465 0-66.128 29.664-66.128 66.122 0 36.465 29.664 66.128 66.13 66.128s66.128-29.664 66.128-66.13c0-36.457-29.664-66.12-66.13-66.12z"/><path d="M82.16 20.88c-2.1 0-3.8-1.7-3.8-3.802V5.568c0-2.1 1.7-3.8 3.8-3.8 2.102 0 3.803 1.7 3.803 3.8v11.51c0 2.1-1.7 3.802-3.802 3.802z"/><path d="M103.234 7.603h-42.14c-2.1 0-3.8-1.7-3.8-3.802s1.7-3.8 3.8-3.8h42.14c2.1 0 3.8 1.7 3.8 3.802s-1.7 3.8-3.8 3.8zM87.418 88.05c0 3.608-2.926 6.533-6.527 6.533-3.6 0-6.526-2.925-6.526-6.534 0-3.603 2.926-6.528 6.527-6.528 3.602 0 6.528 2.925 6.528 6.527z"/><path d="M80.95 92.356c-2.1 0-3.802-1.7-3.802-3.802v-54.88c0-2.1 1.7-3.802 3.802-3.802 2.1 0 3.802 1.7 3.802 3.802v54.88c0 2.1-1.7 3.802-3.802 3.802zM23.033 93.076h-11.51c-2.1 0-3.8-1.7-3.8-3.802 0-2.1 1.7-3.802 3.8-3.802h11.51c2.1 0 3.802 1.7 3.802 3.802 0 2.1-1.7 3.802-3.802 3.802zM82.666 160.564c-2.1 0-3.802-1.7-3.802-3.802V145.26c0-2.1 1.7-3.802 3.802-3.802 2.1 0 3.802 1.7 3.802 3.802v11.502c0 2.102-1.7 3.802-3.802 3.802zM149.827 93.076h-11.502c-2.1 0-3.802-1.7-3.802-3.802 0-2.1 1.7-3.802 3.802-3.802h11.502c2.1 0 3.802 1.7 3.802 3.802 0 2.1-1.7 3.802-3.803 3.802z"/></g></svg>
